<svg width="24" height="24" viewBox="0 0 24 24" xmlns="http://www.w3.org/2000/svg">
<path d="M17 11C17 7.68629 14.3137 5 11 5C7.68629 5 5 7.68629 5 11C5 14.3137 7.68629 17 11 17C14.3137 17 17 14.3137 17 11ZM19 11C19 12.8484 18.3711 14.5488 17.3184 15.9033L21.707 20.293C22.0976 20.6835 22.0976 21.3165 21.707 21.707C21.3165 22.0976 20.6835 22.0976 20.293 21.707L15.9033 17.3184C14.5488 18.3711 12.8484 19 11 19C6.58172 19 3 15.4183 3 11C3 6.58172 6.58172 3 11 3C15.4183 3 19 6.58172 19 11Z" />
</svg>