<svg viewBox="0 0 24 24" fill="none" xmlns="http://www.w3.org/2000/svg">
<path d="M20.9996 12C20.9996 10.8071 20.7334 9.62922 20.2193 8.55274C19.7052 7.47612 18.9559 6.52726 18.0279 5.77735C17.5988 5.43014 17.5325 4.80051 17.8795 4.3711C18.2267 3.94193 18.8563 3.87565 19.2858 4.22266C20.4455 5.16 21.3814 6.34483 22.024 7.69043C22.6667 9.03615 22.9996 10.5087 22.9996 12C22.9996 13.4913 22.6667 14.9639 22.024 16.3096C21.3814 17.6552 20.4455 18.84 19.2858 19.7773C18.8563 20.1244 18.2267 20.0581 17.8795 19.6289C17.5325 19.1995 17.5988 18.5699 18.0279 18.2227C18.9559 17.4727 19.7052 16.5239 20.2193 15.4473C20.7334 14.3708 20.9996 13.1929 20.9996 12Z" fill="currentColor"/>
<path d="M16.9297 12C16.9297 10.9531 16.5189 9.94789 15.7861 9.2002C15.3996 8.80587 15.4056 8.17276 15.7998 7.78614C16.1941 7.39962 16.8273 7.40564 17.2139 7.79981C18.3132 8.92139 18.9297 10.4295 18.9297 12C18.9297 13.5705 18.3132 15.0786 17.2139 16.2002C16.8273 16.5944 16.1941 16.6004 15.7998 16.2139C15.4056 15.8273 15.3996 15.1941 15.7861 14.7998C16.5189 14.0521 16.9297 13.0469 16.9297 12Z" fill="currentColor"/>
<path d="M11.9004 3.20019C12.2034 2.97303 12.6085 2.9361 12.9473 3.10547C13.286 3.27486 13.5 3.62123 13.5 4V20C13.5 20.3788 13.286 20.7251 12.9473 20.8945C12.6085 21.0639 12.2034 21.027 11.9004 20.7998L6.16699 16.5H2C1.44772 16.5 1 16.0523 1 15.5V8.5C1 7.94771 1.44772 7.5 2 7.5H6.16699L11.9004 3.20019ZM7.09961 9.2998C6.92654 9.42955 6.7163 9.5 6.5 9.5H3V14.5H6.5L6.66113 14.5127C6.81954 14.5385 6.96993 14.603 7.09961 14.7002L11.5 18V5.99902L7.09961 9.2998Z" fill="currentColor"/>
</svg>