<svg viewBox="0 0 24 24" fill="none" xmlns="http://www.w3.org/2000/svg">
<path d="M11.9004 3.20019C12.2034 2.97303 12.6085 2.9361 12.9473 3.10547C13.286 3.27486 13.5 3.62123 13.5 4V20C13.5 20.3788 13.286 20.7251 12.9473 20.8945C12.6085 21.0639 12.2034 21.027 11.9004 20.7998L6.16699 16.5H2C1.44772 16.5 1 16.0523 1 15.5V8.5C1 7.94771 1.44772 7.5 2 7.5H6.16699L11.9004 3.20019ZM7.09961 9.2998C6.92654 9.42955 6.7163 9.5 6.5 9.5H3V14.5H6.5L6.66113 14.5127C6.81954 14.5385 6.96993 14.603 7.09961 14.7002L11.5 18V5.99902L7.09961 9.2998Z" fill="currentColor"/>
<path d="M20.793 8.79297C21.1835 8.40245 21.8165 8.40245 22.207 8.79297C22.5976 9.18349 22.5976 9.81651 22.207 10.207L20.4141 12L22.207 13.793C22.5976 14.1835 22.5976 14.8165 22.207 15.207C21.8165 15.5976 21.1835 15.5976 20.793 15.207L19 13.4141L17.207 15.207C16.8165 15.5976 16.1835 15.5976 15.793 15.207C15.4024 14.8165 15.4024 14.1835 15.793 13.793L17.5859 12L15.793 10.207C15.4024 9.81651 15.4024 9.18349 15.793 8.79297C16.1835 8.40245 16.8165 8.40245 17.207 8.79297L19 10.5859L20.793 8.79297Z" fill="currentColor"/>
</svg>