<svg viewBox="0 0 24 24" fill="none" xmlns="http://www.w3.org/2000/svg">
<path d="M23 17.54C22.9997 18.7533 21.6337 19.4644 20.6396 18.7685L16.4268 15.8193C15.9744 15.5027 15.8641 14.8792 16.1807 14.4268C16.4973 13.9744 17.1208 13.8641 17.5732 14.1807L21 16.5781V8.42089L17.5732 10.8193C17.1208 11.1359 16.4973 11.0256 16.1807 10.5732C15.8641 10.1208 15.9744 9.49733 16.4268 9.18066L20.6396 6.23144L20.7344 6.16992C21.7182 5.58061 22.9997 6.28473 23 7.45996V17.54Z" fill="currentColor"/>
<path d="M16 7.7998C15.9999 7.35813 15.6419 7.00011 15.2002 7H3.7998C3.35813 7.00011 3.00011 7.35813 3 7.7998V17.2002C3.00011 17.6419 3.35813 17.9999 3.7998 18H15.2002C15.6419 17.9999 15.9999 17.6419 16 17.2002V7.7998ZM18 17.2002C17.9999 18.7464 16.7464 19.9999 15.2002 20H3.7998C2.25356 19.9999 1.00011 18.7464 1 17.2002V7.7998C1.00011 6.25356 2.25356 5.00011 3.7998 5H15.2002C16.7464 5.00011 17.9999 6.25356 18 7.7998V17.2002Z" fill="currentColor"/>
</svg>